<?xml version="1.0" encoding="utf-8"?>
<!-- Generator: Adobe Illustrator 16.0.2, SVG Export Plug-In . SVG Version: 6.00 Build 0)  -->
<!DOCTYPE svg PUBLIC "-//W3C//DTD SVG 1.1//EN" "http://www.w3.org/Graphics/SVG/1.1/DTD/svg11.dtd">
<svg version="1.1" id="Layer_1" xmlns="http://www.w3.org/2000/svg" xmlns:xlink="http://www.w3.org/1999/xlink" x="0px" y="0px"
	 width="612px" height="792px" viewBox="0 0 612 792" enable-background="new 0 0 612 792" xml:space="preserve">
<path d="M-0.012,147.375C-0.012,453.973,248.494,702,554.613,702c13.507,0,24.982-9.323,27.971-22.232l28.688-124.313
	c3.107-13.508-3.945-27.373-16.734-32.991l-133.875-57.375c-11.715-5.021-25.341-1.673-33.469,8.248l-59.288,72.436
	c-93.593-43.868-168.778-120.129-211.81-211.809l72.437-59.288c9.921-8.009,13.268-21.755,8.247-33.469l-57.375-133.875
	c-5.498-12.67-19.363-19.723-32.871-16.615L22.221,119.405C9.192,122.393-0.012,133.987-0.012,147.375z"/>
</svg>
